<?xml version="1.0" encoding="UTF-8" standalone="no"?>
<svg
   width="16"
   height="16"
   viewBox="0 0 16 16"
   fill="none"
   version="1.1"
   id="svg10"
   sodipodi:docname="bag-tick-2.svg"
   inkscape:version="1.1.1 (3bf5ae0d25, 2021-09-20)"
   xmlns:inkscape="http://www.inkscape.org/namespaces/inkscape"
   xmlns:sodipodi="http://sodipodi.sourceforge.net/DTD/sodipodi-0.dtd"
   xmlns="http://www.w3.org/2000/svg"
   xmlns:svg="http://www.w3.org/2000/svg">
  <defs
     id="defs14" />
  <sodipodi:namedview
     id="namedview12"
     pagecolor="#505050"
     bordercolor="#eeeeee"
     borderopacity="1"
     inkscape:pageshadow="0"
     inkscape:pageopacity="0"
     inkscape:pagecheckerboard="0"
     showgrid="false"
     inkscape:zoom="40.8125"
     inkscape:cx="8"
     inkscape:cy="7.9877489"
     inkscape:window-width="1600"
     inkscape:window-height="831"
     inkscape:window-x="0"
     inkscape:window-y="32"
     inkscape:window-maximized="1"
     inkscape:current-layer="svg10" />
  <path
     style="color:#000000;fill:#00bd79;stroke-linecap:round;stroke-linejoin:round;stroke-miterlimit:10;-inkscape-stroke:none"
     d="m 8,6.8339844 c -1.7429788,0 -3.1660156,1.4230717 -3.1660156,3.1660156 0,1.743009 1.4230391,3.166016 3.1660156,3.166016 1.7429765,0 3.166016,-1.423011 3.166016,-3.166016 C 11.166016,8.2570607 9.7429788,6.8339844 8,6.8339844 Z m 0,1 c 1.2025383,0 2.166016,0.9635179 2.166016,2.1660156 0,1.202592 -0.9634755,2.166016 -2.166016,2.166016 C 6.7974595,12.166016 5.8339844,11.202588 5.8339844,10 5.8339844,8.7975068 6.7974617,7.8339844 8,7.8339844 Z"
     id="path2" />
  <path
     style="color:#000000;fill:#00bd79;stroke-linecap:round;stroke-linejoin:round;-inkscape-stroke:none"
     d="M 9.0605469,8.8476563 A 0.5,0.5 0 0 0 8.7011719,8.9785156 L 7.6308594,9.9648438 7.3144531,9.6464844 a 0.5,0.5 0 0 0 -0.7089844,0 0.5,0.5 0 0 0 0,0.7070316 l 0.4335938,0.433593 c 0.3126971,0.312771 0.8428117,0.331119 1.1679688,0.0059 L 9.3789063,9.7148438 A 0.5,0.5 0 0 0 9.4082031,9.0078125 0.5,0.5 0 0 0 9.0605469,8.8476563 Z"
     id="path4" />
  <path
     style="color:#000000;fill:#00bd79;stroke-linecap:round;stroke-linejoin:round;stroke-miterlimit:10;-inkscape-stroke:none"
     d="m 5.3339844,4.8339844 c -1.5010073,0 -2.5069023,0.3565136 -3.0859375,1.0449218 C 1.6690117,6.5673145 1.6062956,7.4667441 1.703125,8.3417969 a 0.50005,0.50005 0 0 0 0,0.00781 l 0.5,3.9999996 v -0.0098 c 0.074903,0.699115 0.2562047,1.446839 0.8574219,1.996094 C 3.661764,14.885192 4.5932539,15.166016 6,15.166016 h 4 c 1.406756,0 2.338233,-0.280824 2.939453,-0.830078 0.60122,-0.549255 0.782519,-1.296979 0.857422,-1.996094 v 0.0098 l 0.5,-3.9999996 a 0.50005,0.50005 0 0 0 0,-0.00781 C 14.393705,7.466741 14.329032,6.5673124 13.75,5.8789062 13.170968,5.1905001 12.16699,4.8339844 10.666016,4.8339844 Z m 0,1 h 5.3320316 c 1.345623,0 1.999345,0.3059047 2.320312,0.6875 0.320967,0.3815952 0.399576,0.9593249 0.316406,1.7109375 l -0.498046,3.9921871 a 0.50005,0.50005 0 0 0 -0.002,0.0098 c -0.0651,0.607584 -0.193325,1.049212 -0.537109,1.363281 -0.343784,0.31407 -0.992363,0.56836 -2.265625,0.56836 H 6 c -1.2732512,0 -1.9218431,-0.25429 -2.265625,-0.56836 C 3.3905931,13.283587 3.2623622,12.841959 3.1972656,12.234375 a 0.50005,0.50005 0 0 0 -0.00195,-0.0098 L 2.6972656,8.2324219 c -0.08317,-0.7516156 -0.00456,-1.3293443 0.3164063,-1.7109375 0.3209664,-0.3815932 0.9746526,-0.6875 2.3203125,-0.6875 z"
     id="path6" />
  <path
     style="color:#000000;fill:#00bd79;stroke-linecap:round;stroke-linejoin:round;stroke-miterlimit:10;-inkscape-stroke:none"
     d="M 7.6582031,0.85546875 C 5.8606853,1.0243389 4.5,2.6992793 4.5,4.4667969 v 0.6464843 a 0.5,0.5 0 0 0 0.5,0.5 0.5,0.5 0 0 0 0.5,-0.5 V 4.4667969 C 5.5,3.234947 6.5523784,1.9637051 7.7539062,1.8515625 a 0.50005,0.50005 0 0 0 0.00195,0 C 9.2568526,1.705946 10.5,2.8729433 10.5,4.3398437 v 0.9199219 a 0.5,0.5 0 0 0 0.5,0.5 0.5,0.5 0 0 0 0.5,-0.5 V 4.3398437 C 11.5,2.3007339 9.7316047,0.65569687 7.6601562,0.85546875 Z"
     id="path8" />
</svg>
