<svg width="18" height="18" viewBox="0 0 18 18" fill="none" xmlns="http://www.w3.org/2000/svg">
<path d="M9 4.73254C8.6925 4.73254 8.4375 4.47754 8.4375 4.17004C8.4375 3.86254 8.6925 3.60754 9 3.60754H16.5C16.8075 3.60754 17.0625 3.86254 17.0625 4.17004C17.0625 4.48504 16.8075 4.73254 16.5 4.73254H9Z" fill="#828282"/>
<path fill-rule="evenodd" clip-rule="evenodd" d="M10.6723 8.4375C9.02983 8.4375 8.44482 7.86 8.44482 6.225V3.15C8.44482 1.515 9.02983 0.9375 10.6723 0.9375H14.8348C16.4773 0.9375 17.0623 1.515 17.0623 3.15V6.2325C17.0623 7.86 16.4773 8.4375 14.8348 8.4375H10.6723ZM9.56232 3.15V6.2325C9.56232 7.2375 9.64482 7.32 10.6648 7.32H14.8273C15.8473 7.32 15.9298 7.2375 15.9298 6.2325V3.15C15.9298 2.145 15.8473 2.0625 14.8273 2.0625H10.6648C9.64482 2.0625 9.56232 2.145 9.56232 3.15Z" fill="#828282"/>
<path d="M1.5 13.3575C1.1925 13.3575 0.9375 13.1025 0.9375 12.795C0.9375 12.4875 1.1925 12.2325 1.5 12.2325H9C9.3075 12.2325 9.5625 12.4875 9.5625 12.795C9.5625 13.11 9.3075 13.3575 9 13.3575H1.5Z" fill="#828282"/>
<path fill-rule="evenodd" clip-rule="evenodd" d="M3.17233 17.0625C1.52983 17.0625 0.944824 16.485 0.944824 14.85V11.775C0.944824 10.14 1.52983 9.5625 3.17233 9.5625H7.33482C8.97732 9.5625 9.56232 10.14 9.56232 11.775V14.8575C9.56232 16.485 8.97732 17.0625 7.33482 17.0625H3.17233ZM2.06232 11.775V14.8575C2.06232 15.8625 2.14482 15.945 3.16482 15.945H7.32731C8.34731 15.945 8.42981 15.8625 8.42981 14.8575V11.775C8.42981 10.77 8.34731 10.6875 7.32731 10.6875H3.16482C2.14482 10.6875 2.06232 10.77 2.06232 11.775Z" fill="#828282"/>
<path d="M10.7627 16.7777C10.6652 16.5977 10.6651 16.3877 10.7701 16.2077L11.5576 14.8952C11.7151 14.6327 12.0601 14.5427 12.3301 14.7002C12.6001 14.8577 12.6827 15.2027 12.5252 15.4727L12.3226 15.8102C14.3926 15.3227 15.9452 13.4627 15.9452 11.2427C15.9452 10.9352 16.2002 10.6802 16.5077 10.6802C16.8152 10.6802 17.0702 10.9352 17.0702 11.2427C17.0627 14.4527 14.4526 17.0627 11.2501 17.0627C11.0476 17.0627 10.8602 16.9502 10.7627 16.7777Z" fill="#828282"/>
<path d="M0.9375 6.75C0.9375 3.5475 3.5475 0.9375 6.75 0.9375C6.9525 0.9375 7.14 1.05 7.2375 1.2225C7.335 1.4025 7.33501 1.6125 7.23001 1.7925L6.4425 3.105C6.285 3.3675 5.94 3.4575 5.67 3.3C5.4 3.1425 5.31749 2.7975 5.47499 2.5275L5.67751 2.19C3.60751 2.6775 2.05499 4.5375 2.05499 6.7575C2.06249 7.0575 1.8075 7.3125 1.5 7.3125C1.1925 7.3125 0.9375 7.0575 0.9375 6.75Z" fill="#828282"/>
</svg>
