<?xml version="1.0" encoding="UTF-8" standalone="no"?>
<svg
   width="12"
   height="12"
   viewBox="0 0 12 12"
   fill="none"
   version="1.1"
   id="svg8"
   sodipodi:docname="edit-2.svg"
   inkscape:version="1.1.1 (3bf5ae0d25, 2021-09-20)"
   xmlns:inkscape="http://www.inkscape.org/namespaces/inkscape"
   xmlns:sodipodi="http://sodipodi.sourceforge.net/DTD/sodipodi-0.dtd"
   xmlns="http://www.w3.org/2000/svg"
   xmlns:svg="http://www.w3.org/2000/svg">
  <defs
     id="defs12" />
  <sodipodi:namedview
     id="namedview10"
     pagecolor="#505050"
     bordercolor="#eeeeee"
     borderopacity="1"
     inkscape:pageshadow="0"
     inkscape:pageopacity="0"
     inkscape:pagecheckerboard="0"
     showgrid="false"
     inkscape:zoom="54.416667"
     inkscape:cx="6"
     inkscape:cy="6.0091884"
     inkscape:window-width="1600"
     inkscape:window-height="831"
     inkscape:window-x="0"
     inkscape:window-y="32"
     inkscape:window-maximized="1"
     inkscape:current-layer="svg8" />
  <path
     style="color:#000000;fill:#828282;stroke-linecap:round;stroke-linejoin:round;stroke-miterlimit:10;-inkscape-stroke:none"
     d="M 7.7617187,0.74414062 C 7.2066503,0.81511993 6.7576039,1.1544347 6.375,1.5585937 a 0.35003499,0.35003499 0 0 0 0,0.00195 l -4.1035156,4.34375 a 0.35003499,0.35003499 0 0 0 -0.00195,0.00195 C 2.0346527,6.156282 1.8881142,6.4817218 1.84375,6.8144531 a 0.35003499,0.35003499 0 0 0 -0.00195,0.00586 L 1.65625,8.4394531 a 0.35003499,0.35003499 0 0 0 0,0.00195 C 1.6136461,8.8248409 1.7355568,9.192073 1.9902344,9.4335938 2.2449119,9.6751145 2.6190596,9.7766169 3,9.7109375 L 4.609375,9.4355469 a 0.35003499,0.35003499 0 0 0 0.00195,0 C 4.9442102,9.3763678 5.2658091,9.2123107 5.5039062,8.9511719 L 9.6035156,4.6113281 C 9.9861,4.2071726 10.302694,3.7391186 10.341797,3.1796875 10.3809,2.6202564 10.114991,2.0316757 9.515625,1.4648437 8.9184819,0.90298533 8.3167872,0.67316132 7.7617187,0.74414062 Z M 7.8496094,1.4375 c 0.3149257,-0.040271 0.682691,0.063967 1.1855469,0.5371094 0.5056124,0.478167 0.6315197,0.839432 0.609375,1.15625 C 9.6223865,3.4476774 9.423088,3.7830625 9.0957031,4.1289062 L 4.9902344,8.4746094 a 0.35003499,0.35003499 0 0 0 -0.00391,0.00391 C 4.9147619,8.5570076 4.6085779,8.7220653 4.4902344,8.7441406 L 2.8808594,9.0195313 C 2.6818003,9.0538518 2.5547753,9.0055102 2.4707031,8.9257813 2.386631,8.8460523 2.3311195,8.721096 2.3535156,8.5195313 L 2.5371094,6.90625 C 2.5527451,6.7889818 2.7041758,6.4647333 2.7792969,6.3847656 l 4.1054687,-4.34375 C 7.212161,1.6951754 7.5346837,1.4777711 7.8496094,1.4375 Z"
     id="path2" />
  <path
     style="color:#000000;fill:#828282;stroke-linecap:round;stroke-linejoin:round;stroke-miterlimit:10;-inkscape-stroke:none"
     d="M 5.890625,2.1796875 A 0.34999999,0.34999999 0 0 0 5.5996094,2.578125 c 0.239284,1.5358697 1.4893722,2.7134501 3.0351562,2.8691406 a 0.34999999,0.34999999 0 0 0 0.3828125,-0.3125 0.34999999,0.34999999 0 0 0 -0.3125,-0.3828125 C 7.4708649,4.6276439 6.4817312,3.6948307 6.2910156,2.4707031 A 0.34999999,0.34999999 0 0 0 5.890625,2.1796875 Z"
     id="path4" />
  <path
     style="color:#000000;fill:#828282;stroke-linecap:round;stroke-linejoin:round;stroke-miterlimit:10;-inkscape-stroke:none"
     d="M 1.5,10.650391 A 0.34999999,0.34999999 0 0 0 1.1503906,11 0.34999999,0.34999999 0 0 0 1.5,11.349609 h 9 A 0.34999999,0.34999999 0 0 0 10.849609,11 0.34999999,0.34999999 0 0 0 10.5,10.650391 Z"
     id="path6" />
</svg>
