<svg width="16" height="16" viewBox="0 0 16 16" fill="none" xmlns="http://www.w3.org/2000/svg">
<path d="M14.6667 5.67992V2.65325C14.6667 1.71325 14.24 1.33325 13.18 1.33325H10.4867C9.42667 1.33325 9 1.71325 9 2.65325V5.67325C9 6.61992 9.42667 6.99325 10.4867 6.99325H13.18C14.24 6.99992 14.6667 6.61992 14.6667 5.67992Z" fill="#3554D1"/>
<path d="M14.6667 13.18V10.4867C14.6667 9.42667 14.24 9 13.18 9H10.4867C9.42667 9 9 9.42667 9 10.4867V13.18C9 14.24 9.42667 14.6667 10.4867 14.6667H13.18C14.24 14.6667 14.6667 14.24 14.6667 13.18Z" fill="#3554D1"/>
<path d="M6.99992 5.67992V2.65325C6.99992 1.71325 6.57325 1.33325 5.51325 1.33325H2.81992C1.75992 1.33325 1.33325 1.71325 1.33325 2.65325V5.67325C1.33325 6.61992 1.75992 6.99325 2.81992 6.99325H5.51325C6.57325 6.99992 6.99992 6.61992 6.99992 5.67992Z" fill="#3554D1"/>
<path d="M6.99992 13.18V10.4867C6.99992 9.42667 6.57325 9 5.51325 9H2.81992C1.75992 9 1.33325 9.42667 1.33325 10.4867V13.18C1.33325 14.24 1.75992 14.6667 2.81992 14.6667H5.51325C6.57325 14.6667 6.99992 14.24 6.99992 13.18Z" fill="#3554D1"/>
</svg>
