<?xml version="1.0" encoding="UTF-8" standalone="no"?>
<svg
   width="18"
   height="18"
   viewBox="0 0 18 18"
   fill="none"
   version="1.1"
   id="svg6"
   sodipodi:docname="facebook.svg"
   inkscape:version="1.1.1 (3bf5ae0d25, 2021-09-20)"
   xmlns:inkscape="http://www.inkscape.org/namespaces/inkscape"
   xmlns:sodipodi="http://sodipodi.sourceforge.net/DTD/sodipodi-0.dtd"
   xmlns="http://www.w3.org/2000/svg"
   xmlns:svg="http://www.w3.org/2000/svg">
  <defs
     id="defs10" />
  <sodipodi:namedview
     id="namedview8"
     pagecolor="#505050"
     bordercolor="#eeeeee"
     borderopacity="1"
     inkscape:pageshadow="0"
     inkscape:pageopacity="0"
     inkscape:pagecheckerboard="0"
     showgrid="false"
     inkscape:zoom="36.277778"
     inkscape:cx="5.6646248"
     inkscape:cy="9.0137825"
     inkscape:window-width="1600"
     inkscape:window-height="831"
     inkscape:window-x="0"
     inkscape:window-y="32"
     inkscape:window-maximized="1"
     inkscape:current-layer="svg6" />
  <path
     style="color:#000000;fill:#ffffff;stroke-linecap:round;stroke-miterlimit:10;-inkscape-stroke:none"
     d="M 10.5,4 C 8.9700996,4 7.75,5.2200996 7.75,6.75 V 8.7246094 H 6.9746094 c -0.1583332,0 -0.3661334,0.047774 -0.5214844,0.203125 C 6.297774,9.0830853 6.25,9.2908856 6.25,9.4492188 V 10.875 c 0,0.158333 0.047774,0.366133 0.203125,0.521484 0.155351,0.155351 0.3631512,0.203125 0.5214844,0.203125 H 7.75 V 17 H 11 v -5.474609 h 1.150391 c 0.204166,0 0.284308,-0.05066 0.398437,-0.119141 0.05706,-0.03424 0.115694,-0.0746 0.179688,-0.148437 C 12.79251,11.183973 12.875,11.060416 12.875,10.875 l -0.0098,0.103516 0.310547,-1.4765629 v -0.052734 c 0,-0.1583332 -0.03201,-0.319499 -0.140625,-0.4824219 C 12.926541,8.8038739 12.690885,8.6503906 12.449219,8.6503906 H 11 V 7.25 h 1.525391 c 0.158333,0 0.366133,-0.047774 0.521484,-0.203125 C 13.202226,6.891524 13.25,6.6837238 13.25,6.5253906 V 4.7246094 C 13.25,4.5662762 13.202226,4.358476 13.046875,4.203125 12.891524,4.047774 12.683724,4 12.525391,4 Z m 0,1 h 1.75 v 1.25 h -1.525391 c -0.158333,0 -0.366133,0.047774 -0.521484,0.203125 C 10.047774,6.608476 10,6.8162762 10,6.9746094 v 2.6757812 h 2.121094 L 11.9375,10.525391 H 10 V 16 H 8.75 V 10.599609 H 7.25 V 9.7246094 h 1.5 V 6.75 C 8.75,5.729903 9.479903,5 10.5,5 Z"
     id="path2" />
  <path
     style="color:#000000;fill:#ffffff;stroke-linecap:round;stroke-linejoin:round;-inkscape-stroke:none"
     d="M 6.75,1 C 4.8083353,1 3.3399291,1.3905396 2.3652344,2.3652344 1.3905396,3.3399291 1,4.8083353 1,6.75 v 4.5 c 0,1.941665 0.3905396,3.410071 1.3652344,4.384766 C 3.3399291,16.60946 4.8083353,17 6.75,17 h 4.5 c 1.941665,0 3.410071,-0.39054 4.384766,-1.365234 C 16.60946,14.660071 17,13.191665 17,11.25 V 6.75 C 17,4.8083353 16.60946,3.3399291 15.634766,2.3652344 14.660071,1.3905396 13.191665,1 11.25,1 Z m 0,1 h 4.5 c 1.808332,0 2.964931,0.359462 3.677734,1.0722656 C 15.640538,3.7850692 16,4.9416685 16,6.75 v 4.5 c 0,1.808332 -0.359462,2.964931 -1.072266,3.677734 C 14.214931,15.640538 13.058332,16 11.25,16 H 6.75 C 4.9416685,16 3.7850692,15.640538 3.0722656,14.927734 2.359462,14.214931 2,13.058332 2,11.25 V 6.75 C 2,4.9416685 2.359462,3.7850692 3.0722656,3.0722656 3.7850692,2.359462 4.9416685,2 6.75,2 Z"
     id="path4" />
</svg>
