<?xml version="1.0" encoding="UTF-8" standalone="no"?>
<svg
   width="24"
   height="24"
   viewBox="0 0 24 24"
   fill="none"
   version="1.1"
   id="svg8"
   sodipodi:docname="lock.svg"
   inkscape:version="1.1.1 (3bf5ae0d25, 2021-09-20)"
   xmlns:inkscape="http://www.inkscape.org/namespaces/inkscape"
   xmlns:sodipodi="http://sodipodi.sourceforge.net/DTD/sodipodi-0.dtd"
   xmlns="http://www.w3.org/2000/svg"
   xmlns:svg="http://www.w3.org/2000/svg">
  <defs
     id="defs12" />
  <sodipodi:namedview
     id="namedview10"
     pagecolor="#505050"
     bordercolor="#eeeeee"
     borderopacity="1"
     inkscape:pageshadow="0"
     inkscape:pageopacity="0"
     inkscape:pagecheckerboard="0"
     showgrid="false"
     inkscape:zoom="27.208333"
     inkscape:cx="12"
     inkscape:cy="12.018377"
     inkscape:window-width="1600"
     inkscape:window-height="831"
     inkscape:window-x="0"
     inkscape:window-y="32"
     inkscape:window-maximized="1"
     inkscape:current-layer="svg8" />
  <path
     style="color:#000000;fill:#828282;stroke-linecap:round;stroke-linejoin:round;-inkscape-stroke:none"
     d="M 12,1.25 C 9.3655026,1.25 7.583831,1.9944817 6.5410156,3.2890625 5.4982003,4.5836433 5.25,6.269473 5.25,8 v 2 A 0.75,0.75 0 0 0 6,10.75 0.75,0.75 0 0 0 6.75,10 V 8 C 6.75,6.4205303 7.0018015,5.1064327 7.7089844,4.2285156 8.4161673,3.3505986 9.6345024,2.75 12,2.75 c 2.365498,0 3.583833,0.6005986 4.291016,1.4785156 C 16.998199,5.1064327 17.25,6.4205303 17.25,8 v 2 A 0.75,0.75 0 0 0 18,10.75 0.75,0.75 0 0 0 18.75,10 V 8 C 18.75,6.269473 18.5018,4.5836433 17.458984,3.2890625 16.416169,1.9944817 14.634497,1.25 12,1.25 Z"
     id="path2" />
  <path
     style="color:#000000;fill:#828282;stroke-linecap:round;stroke-linejoin:round;-inkscape-stroke:none"
     d="m 12,12.75 c -1.786036,0 -3.25,1.463964 -3.25,3.25 0,1.786036 1.463964,3.25 3.25,3.25 1.786036,0 3.25,-1.463964 3.25,-3.25 0,-1.786036 -1.463964,-3.25 -3.25,-3.25 z m 0,1.5 c 0.975361,0 1.75,0.774639 1.75,1.75 0,0.975361 -0.774639,1.75 -1.75,1.75 -0.975361,0 -1.75,-0.774639 -1.75,-1.75 0,-0.975361 0.774639,-1.75 1.75,-1.75 z"
     id="path4" />
  <path
     style="color:#000000;fill:#828282;stroke-linecap:round;stroke-linejoin:round;-inkscape-stroke:none"
     d="M 7,9.25 C 4.9375021,9.25 3.4544513,9.4830487 2.46875,10.46875 1.4830487,11.454451 1.25,12.937502 1.25,15 v 2 c 0,2.062498 0.2330487,3.545549 1.21875,4.53125 C 3.4544513,22.516951 4.9375021,22.75 7,22.75 h 10 c 2.062498,0 3.545549,-0.233049 4.53125,-1.21875 C 22.516951,20.545549 22.75,19.062498 22.75,17 v -2 c 0,-2.062498 -0.233049,-3.545549 -1.21875,-4.53125 C 20.545549,9.4830487 19.062498,9.25 17,9.25 Z m 0,1.5 h 10 c 1.937498,0 2.954453,0.266953 3.46875,0.78125 C 20.983047,12.045547 21.25,13.062502 21.25,15 v 2 c 0,1.937498 -0.266953,2.954453 -0.78125,3.46875 C 19.954453,20.983047 18.937498,21.25 17,21.25 H 7 C 5.0625019,21.25 4.0455472,20.983047 3.53125,20.46875 3.0169528,19.954453 2.75,18.937498 2.75,17 v -2 c 0,-1.937498 0.2669528,-2.954453 0.78125,-3.46875 C 4.0455472,11.016953 5.0625019,10.75 7,10.75 Z"
     id="path6" />
</svg>
