<?xml version="1.0" encoding="UTF-8" standalone="no"?>
<svg
   width="18"
   height="18"
   viewBox="0 0 18 18"
   fill="none"
   version="1.1"
   id="svg8"
   sodipodi:docname="menu.svg"
   inkscape:version="1.1.1 (3bf5ae0d25, 2021-09-20)"
   xmlns:inkscape="http://www.inkscape.org/namespaces/inkscape"
   xmlns:sodipodi="http://sodipodi.sourceforge.net/DTD/sodipodi-0.dtd"
   xmlns="http://www.w3.org/2000/svg"
   xmlns:svg="http://www.w3.org/2000/svg">
  <defs
     id="defs12" />
  <sodipodi:namedview
     id="namedview10"
     pagecolor="#505050"
     bordercolor="#eeeeee"
     borderopacity="1"
     inkscape:pageshadow="0"
     inkscape:pageopacity="0"
     inkscape:pagecheckerboard="0"
     showgrid="false"
     inkscape:zoom="36.277778"
     inkscape:cx="9"
     inkscape:cy="9.0137825"
     inkscape:window-width="1600"
     inkscape:window-height="831"
     inkscape:window-x="0"
     inkscape:window-y="32"
     inkscape:window-maximized="1"
     inkscape:current-layer="svg8" />
  <path
     style="color:#000000;fill:#bdbdbd;stroke-linecap:round;-inkscape-stroke:none"
     d="M 2.25,4.5 A 0.75,0.75 0 0 0 1.5,5.25 0.75,0.75 0 0 0 2.25,6 h 13.5 A 0.75,0.75 0 0 0 16.5,5.25 0.75,0.75 0 0 0 15.75,4.5 Z"
     id="path2" />
  <path
     style="color:#000000;fill:#bdbdbd;stroke-linecap:round;-inkscape-stroke:none"
     d="M 2.25,8.25 A 0.75,0.75 0 0 0 1.5,9 0.75,0.75 0 0 0 2.25,9.75 h 13.5 A 0.75,0.75 0 0 0 16.5,9 0.75,0.75 0 0 0 15.75,8.25 Z"
     id="path4" />
  <path
     style="color:#000000;fill:#bdbdbd;stroke-linecap:round;-inkscape-stroke:none"
     d="M 2.25,12 A 0.75,0.75 0 0 0 1.5,12.75 0.75,0.75 0 0 0 2.25,13.5 h 13.5 A 0.75,0.75 0 0 0 16.5,12.75 0.75,0.75 0 0 0 15.75,12 Z"
     id="path6" />
</svg>
