<?xml version="1.0" encoding="UTF-8" standalone="no"?>
<svg
   width="18"
   height="22"
   viewBox="0 0 18 22"
   fill="none"
   version="1.1"
   id="svg8"
   sodipodi:docname="mobile.svg"
   inkscape:version="1.1.1 (3bf5ae0d25, 2021-09-20)"
   xmlns:inkscape="http://www.inkscape.org/namespaces/inkscape"
   xmlns:sodipodi="http://sodipodi.sourceforge.net/DTD/sodipodi-0.dtd"
   xmlns="http://www.w3.org/2000/svg"
   xmlns:svg="http://www.w3.org/2000/svg">
  <defs
     id="defs12" />
  <sodipodi:namedview
     id="namedview10"
     pagecolor="#505050"
     bordercolor="#eeeeee"
     borderopacity="1"
     inkscape:pageshadow="0"
     inkscape:pageopacity="0"
     inkscape:pagecheckerboard="0"
     showgrid="false"
     inkscape:zoom="29.681818"
     inkscape:cx="9.0122511"
     inkscape:cy="11.016845"
     inkscape:window-width="1600"
     inkscape:window-height="831"
     inkscape:window-x="0"
     inkscape:window-y="32"
     inkscape:window-maximized="1"
     inkscape:current-layer="svg8" />
  <path
     style="color:#000000;fill:#828282;stroke-linecap:round;stroke-linejoin:round;-inkscape-stroke:none"
     d="M 6,0.25 C 3.9375021,0.25 2.4544513,0.48304873 1.46875,1.46875 0.48304873,2.4544513 0.25,3.9375021 0.25,6 v 10 c 0,2.062498 0.23304873,3.545549 1.21875,4.53125 C 2.4544513,21.516951 3.9375021,21.75 6,21.75 h 6 c 2.062498,0 3.545549,-0.233049 4.53125,-1.21875 C 17.516951,19.545549 17.75,18.062498 17.75,16 V 6 C 17.75,3.9375021 17.516951,2.4544513 16.53125,1.46875 15.545549,0.48304873 14.062498,0.25 12,0.25 Z m 0,1.5 h 6 c 1.937498,0 2.954453,0.2669528 3.46875,0.78125 C 15.983047,3.0455472 16.25,4.0625019 16.25,6 v 10 c 0,1.937498 -0.266953,2.954453 -0.78125,3.46875 C 14.954453,19.983047 13.937498,20.25 12,20.25 H 6 C 4.0625019,20.25 3.0455472,19.983047 2.53125,19.46875 2.0169528,18.954453 1.75,17.937498 1.75,16 V 6 C 1.75,4.0625019 2.0169528,3.0455472 2.53125,2.53125 3.0455472,2.0169528 4.0625019,1.75 6,1.75 Z"
     id="path2" />
  <path
     style="color:#000000;fill:#828282;stroke-linecap:round;stroke-linejoin:round;-inkscape-stroke:none"
     d="M 7,3.75 A 0.75,0.75 0 0 0 6.25,4.5 0.75,0.75 0 0 0 7,5.25 h 4 A 0.75,0.75 0 0 0 11.75,4.5 0.75,0.75 0 0 0 11,3.75 Z"
     id="path4" />
  <path
     style="color:#000000;fill:#828282;stroke-linecap:round;stroke-linejoin:round;-inkscape-stroke:none"
     d="m 9,14.25 c -1.2613936,0 -2.3007812,1.039432 -2.3007813,2.300781 10e-8,1.261349 1.0393877,2.298828 2.3007813,2.298828 1.261394,0 2.300781,-1.037449 2.300781,-2.298828 C 11.300781,15.289403 10.261394,14.25 9,14.25 Z m 0,1.5 c 0.4506847,0 0.8007813,0.350161 0.8007813,0.800781 0,0.45062 -0.3500966,0.798828 -0.8007813,0.798828 -0.4506847,0 -0.8007812,-0.348179 -0.8007812,-0.798828 C 8.1992188,16.100132 8.5493153,15.75 9,15.75 Z"
     id="path6" />
</svg>
