<?xml version="1.0" encoding="UTF-8" standalone="no"?>
<svg
   width="24"
   height="24"
   viewBox="0 0 24 24"
   fill="none"
   version="1.1"
   id="svg4"
   sodipodi:docname="refresh-2.svg"
   inkscape:version="1.1.1 (3bf5ae0d25, 2021-09-20)"
   xmlns:inkscape="http://www.inkscape.org/namespaces/inkscape"
   xmlns:sodipodi="http://sodipodi.sourceforge.net/DTD/sodipodi-0.dtd"
   xmlns="http://www.w3.org/2000/svg"
   xmlns:svg="http://www.w3.org/2000/svg">
  <defs
     id="defs8" />
  <sodipodi:namedview
     id="namedview6"
     pagecolor="#505050"
     bordercolor="#eeeeee"
     borderopacity="1"
     inkscape:pageshadow="0"
     inkscape:pageopacity="0"
     inkscape:pagecheckerboard="0"
     showgrid="false"
     inkscape:zoom="27.208333"
     inkscape:cx="12"
     inkscape:cy="12.018377"
     inkscape:window-width="1600"
     inkscape:window-height="831"
     inkscape:window-x="0"
     inkscape:window-y="32"
     inkscape:window-maximized="1"
     inkscape:current-layer="svg4" />
  <path
     style="color:#000000;fill:#828282;stroke-linecap:round;stroke-linejoin:round;-inkscape-stroke:none"
     d="M 12,1.25 C 6.0371283,1.25 1.25,6.077832 1.25,12 A 0.75,0.75 0 0 0 2,12.75 0.75,0.75 0 0 0 2.75,12 c 0,-5.117821 4.0928829,-9.25 9.25,-9.25 4.887402,0 7.276604,2.6741704 8.337891,4.0605469 h -2.777344 a 0.75,0.75 0 0 0 -0.75,0.75 0.75,0.75 0 0 0 0.75,0.75 H 22 a 0.75,0.75 0 0 0 0.306641,-0.1269531 0.75,0.75 0 0 0 0.07813,0.019531 0.75,0.75 0 0 0 0.08594,-0.087891 0.75,0.75 0 0 0 0.06055,-0.025391 0.75,0.75 0 0 0 0.02734,-0.064453 A 0.75,0.75 0 0 0 22.742187,7.578125 0.75,0.75 0 0 0 22.75,7.5605469 V 7.5488281 2.5605469 a 0.75,0.75 0 0 0 -0.75,-0.75 0.75,0.75 0 0 0 -0.75,0.75 V 5.6269531 C 19.878382,3.937455 17.235144,1.25 12,1.25 Z m 10,10 A 0.75,0.75 0 0 0 21.25,12 c 0,5.114198 -4.135802,9.25 -9.25,9.25 -3.9175986,0 -6.2140701,-2.67153 -7.265625,-4.060547 h 2.8964844 a 0.75,0.75 0 0 0 0.75,-0.75 0.75,0.75 0 0 0 -0.75,-0.75 H 3.109375 a 0.75,0.75 0 0 0 -0.1875,0.07813 0.75,0.75 0 0 0 -0.2011719,0.03125 0.75,0.75 0 0 0 -0.013672,0.05859 0.75,0.75 0 0 0 -0.1269532,0.05273 0.75,0.75 0 0 0 -0.2207031,0.529297 v 5 a 0.75,0.75 0 0 0 0.75,0.75 0.75,0.75 0 0 0 0.75,-0.75 v -2.96875 C 5.2105211,20.186047 7.647433,22.75 12,22.75 17.925791,22.75 22.75,17.925791 22.75,12 A 0.75,0.75 0 0 0 22,11.25 Z"
     id="path2" />
</svg>
