<?xml version="1.0" encoding="UTF-8" standalone="no"?>
<svg
   width="12"
   height="12"
   viewBox="0 0 12 12"
   fill="none"
   version="1.1"
   id="svg12"
   sodipodi:docname="trash.svg"
   inkscape:version="1.1.1 (3bf5ae0d25, 2021-09-20)"
   xmlns:inkscape="http://www.inkscape.org/namespaces/inkscape"
   xmlns:sodipodi="http://sodipodi.sourceforge.net/DTD/sodipodi-0.dtd"
   xmlns="http://www.w3.org/2000/svg"
   xmlns:svg="http://www.w3.org/2000/svg">
  <defs
     id="defs16" />
  <sodipodi:namedview
     id="namedview14"
     pagecolor="#505050"
     bordercolor="#eeeeee"
     borderopacity="1"
     inkscape:pageshadow="0"
     inkscape:pageopacity="0"
     inkscape:pagecheckerboard="0"
     showgrid="false"
     inkscape:zoom="54.416667"
     inkscape:cx="6"
     inkscape:cy="6.0091884"
     inkscape:window-width="1600"
     inkscape:window-height="831"
     inkscape:window-x="0"
     inkscape:window-y="32"
     inkscape:window-maximized="1"
     inkscape:current-layer="svg12" />
  <path
     style="color:#000000;fill:#ef394e;stroke-linecap:round;stroke-linejoin:round;-inkscape-stroke:none"
     d="m 5.4902344,2.390625 c -1.0017835,0 -2.004254,0.049218 -3.0058594,0.1503906 L 1.4667969,2.6425781 A 0.34999999,0.34999999 0 0 0 1.1523437,3.0234375 0.34999999,0.34999999 0 0 0 1.5332031,3.3378906 l 1.0214844,-0.099609 c 0.9783926,-0.098828 1.9573324,-0.1484376 2.9355469,-0.1484375 1.6581221,0 3.3207959,0.084155 4.9746096,0.2480468 a 0.34999999,0.34999999 0 0 0 0.382812,-0.3125 0.34999999,0.34999999 0 0 0 -0.3125,-0.3828125 C 8.858973,2.4764699 7.1721089,2.390625 5.4902344,2.390625 Z"
     id="path2" />
  <path
     style="color:#000000;fill:#ef394e;stroke-linecap:round;stroke-linejoin:round;-inkscape-stroke:none"
     d="m 5.3457031,0.65039062 c -0.4715133,0 -0.8256103,0.10899052 -1.0429687,0.35546878 C 4.0853759,1.2523376 4.0556333,1.533935 4.015625,1.7714844 l -0.1113281,0.65625 A 0.34999999,0.34999999 0 0 0 4.1914062,2.8300781 0.34999999,0.34999999 0 0 0 4.5957031,2.5429688 L 4.7050781,1.8886719 C 4.7450697,1.6512217 4.7842337,1.5185215 4.828125,1.46875 4.8720163,1.4189785 4.9722173,1.3496094 5.3457031,1.3496094 h 1.3085938 c 0.3707245,0 0.4706215,0.070888 0.5175781,0.125 0.046957,0.054112 0.0857,0.1869567 0.1230469,0.4160156 a 0.35003499,0.35003499 0 0 0 0,0.00195 l 0.109375,0.6503907 A 0.34999999,0.34999999 0 0 0 7.8085937,2.8300781 0.34999999,0.34999999 0 0 0 8.0957031,2.4257813 L 7.984375,1.7773437 C 7.9468728,1.5467913 7.9160505,1.2632471 7.7011719,1.015625 7.4856288,0.76723724 7.1285715,0.65039062 6.6542969,0.65039062 Z"
     id="path4" />
  <path
     style="color:#000000;fill:#ef394e;stroke-linecap:round;stroke-linejoin:round;-inkscape-stroke:none"
     d="M 2.5527344,4.2207031 A 0.34999999,0.34999999 0 0 0 2.2265625,4.5917969 l 0.3242188,5.0351562 a 0.35003499,0.35003499 0 0 0 0,0.00195 c 0.027523,0.3928487 0.03728,0.8182267 0.3164062,1.1816407 0.2791265,0.363414 0.778829,0.539062 1.5273437,0.539062 h 3.2109375 c 0.7485148,0 1.2482173,-0.175648 1.5273438,-0.539062 0.2791265,-0.363414 0.2888829,-0.788792 0.3164063,-1.1816407 a 0.35003499,0.35003499 0 0 0 0,-0.00195 L 9.7734375,4.5917969 A 0.34999999,0.34999999 0 0 0 9.4472656,4.2207031 0.34999999,0.34999999 0 0 0 9.0761719,4.546875 L 8.75,9.5800781 C 8.7225234,9.9722589 8.6839981,10.244969 8.578125,10.382813 8.4722519,10.520656 8.2519526,10.650391 7.6054687,10.650391 H 4.3945312 c -0.6464838,0 -0.8667831,-0.129735 -0.9726562,-0.267578 C 3.3162482,10.24529 3.2774715,9.972747 3.25,9.5820313 v -0.00195 L 2.9238281,4.546875 A 0.34999999,0.34999999 0 0 0 2.5527344,4.2207031 Z"
     id="path6" />
  <path
     style="color:#000000;fill:#ef394e;stroke-linecap:round;stroke-linejoin:round;-inkscape-stroke:none"
     d="M 5.1660156,7.9003906 A 0.34999999,0.34999999 0 0 0 4.8144531,8.25 0.34999999,0.34999999 0 0 0 5.1660156,8.5996094 H 6.8300781 A 0.34999999,0.34999999 0 0 0 7.1796875,8.25 0.34999999,0.34999999 0 0 0 6.8300781,7.9003906 Z"
     id="path8" />
  <path
     style="color:#000000;fill:#ef394e;stroke-linecap:round;stroke-linejoin:round;-inkscape-stroke:none"
     d="M 4.75,5.9003906 A 0.34999999,0.34999999 0 0 0 4.4003906,6.25 0.34999999,0.34999999 0 0 0 4.75,6.5996094 h 2.5 A 0.34999999,0.34999999 0 0 0 7.5996094,6.25 0.34999999,0.34999999 0 0 0 7.25,5.9003906 Z"
     id="path10" />
</svg>
