<?xml version="1.0" encoding="UTF-8" standalone="no"?>
<svg
   width="24"
   height="24"
   viewBox="0 0 24 24"
   fill="none"
   version="1.1"
   id="svg6"
   sodipodi:docname="whatsapp.svg"
   inkscape:version="1.1.1 (3bf5ae0d25, 2021-09-20)"
   xmlns:inkscape="http://www.inkscape.org/namespaces/inkscape"
   xmlns:sodipodi="http://sodipodi.sourceforge.net/DTD/sodipodi-0.dtd"
   xmlns="http://www.w3.org/2000/svg"
   xmlns:svg="http://www.w3.org/2000/svg">
  <defs
     id="defs10" />
  <sodipodi:namedview
     id="namedview8"
     pagecolor="#505050"
     bordercolor="#eeeeee"
     borderopacity="1"
     inkscape:pageshadow="0"
     inkscape:pageopacity="0"
     inkscape:pagecheckerboard="0"
     showgrid="false"
     inkscape:zoom="27.208333"
     inkscape:cx="12"
     inkscape:cy="12.018377"
     inkscape:window-width="1600"
     inkscape:window-height="831"
     inkscape:window-x="0"
     inkscape:window-y="32"
     inkscape:window-maximized="1"
     inkscape:current-layer="svg6" />
  <path
     style="color:#000000;fill:#ffffff;stroke-linecap:round;stroke-linejoin:round;stroke-miterlimit:10;-inkscape-stroke:none"
     d="m 12,4 c -4.3977229,0 -8,3.6023145 -8,8 0,1.363886 0.377053,2.637872 0.9511719,3.777344 L 4.4570312,17.679687 C 4.1711491,18.779347 5.2278402,19.812148 6.3203125,19.5 l 1.828125,-0.523438 C 9.308078,19.621221 10.642452,20 12,20 c 4.397723,0 8,-3.602277 8,-8 0,-4.3976855 -3.602277,-8 -8,-8 z m 0,1 c 3.852269,0 7,3.1477738 7,7 0,3.852269 -3.147731,7 -7,7 -1.257406,0 -2.5246261,-0.352276 -3.5683594,-0.978516 A 0.50005,0.50005 0 0 0 8.0371094,17.96875 L 6.0449219,18.539062 C 5.6492557,18.652115 5.3202707,18.329979 5.4238281,17.931641 L 5.9589844,15.875 A 0.50005,0.50005 0 0 0 5.9160156,15.513672 C 5.3491256,14.450753 5,13.257406 5,12 5,8.1477738 8.1477311,5 12,5 Z"
     id="path2" />
  <path
     style="color:#000000;fill:#ffffff;stroke-miterlimit:10;-inkscape-stroke:none"
     d="M 9.8378906,8.125 C 9.4498054,8.125 9.0764658,8.3029614 8.7890625,8.5839844 8.564415,8.7969772 8.3912696,9.0471674 8.2832031,9.3203125 8.1771241,9.5851178 8.125,9.8697556 8.125,10.158203 c 0,0.428037 0.099818,0.861951 0.2832031,1.296875 v 0.002 C 8.5876609,11.878907 8.8298237,12.293327 9.125,12.703125 l 0.00195,0.002 v 0.002 c 0.2959084,0.405775 0.6270759,0.792003 0.9921879,1.160157 l 0.002,0.002 0.002,0.002 c 0.368719,0.364628 0.754951,0.695753 1.164062,0.99414 h 0.002 c 0.412663,0.299993 0.832638,0.541015 1.259765,0.722657 0.439317,0.186938 0.875722,0.287109 1.298828,0.287109 0.297788,0 0.58396,-0.05668 0.847657,-0.166016 0.279112,-0.114243 0.528278,-0.294545 0.736328,-0.523437 v -0.002 c 0.131873,-0.14533 0.233853,-0.302787 0.310547,-0.464844 0.08829,-0.186554 0.132812,-0.386457 0.132812,-0.582031 0,-0.166105 -0.03896,-0.322164 -0.08984,-0.449219 l -0.0039,-0.0078 -0.002,-0.0078 C 15.703382,13.499638 15.570606,13.352628 15.423828,13.25 l -0.002,-0.002 -1.121094,-0.794922 -0.0039,-0.002 c -0.104552,-0.07102 -0.210893,-0.13374 -0.328125,-0.181641 -0.124588,-0.05091 -0.260238,-0.08008 -0.394531,-0.08008 -0.173381,0 -0.348803,0.05629 -0.488281,0.138672 -0.134616,0.0731 -0.246097,0.162234 -0.34961,0.265625 l -0.08789,0.08594 c -0.06489,-0.04376 -0.115696,-0.07206 -0.210938,-0.152344 l -0.002,-0.002 C 12.272515,12.387 12.106522,12.231722 11.931641,12.060547 l -0.002,-0.0039 c -0.0011,-0.001 -0.0028,-9.04e-4 -0.0039,-0.002 -0.164495,-0.167706 -0.31763,-0.336298 -0.46289,-0.503907 -0.08012,-0.09491 -0.107553,-0.142716 -0.152344,-0.207031 l 0.08789,-0.08984 0.0059,-0.0078 c 0.10063,-0.101245 0.188876,-0.208861 0.259766,-0.332031 0.08728,-0.145192 0.140624,-0.317729 0.140625,-0.494141 0,-0.151279 -0.03674,-0.280675 -0.08789,-0.400391 C 11.669413,9.9055206 11.607512,9.7958063 11.53125,9.6894531 l -0.002,-0.00391 L 10.75,8.5898438 l -0.002,-0.00195 C 10.635488,8.4264554 10.48165,8.3052255 10.324219,8.2324219 h -0.002 C 10.166859,8.1590318 10.001823,8.125 9.8378906,8.125 Z m 0,1 c 0.023317,0 0.04669,0.00601 0.058594,0.011719 l 0.00391,0.00195 0.00195,0.00195 c 0.017148,0.0079 0.016785,0.00711 0.025391,0.019531 l 0.00195,0.00195 0.7871095,1.1074216 v 0.002 c 0.04274,0.05934 0.06553,0.102064 0.07813,0.132813 l 0.002,0.0039 0.002,0.0039 v 0.002 c -0.01445,0.02555 -0.05092,0.0745 -0.107422,0.130859 l -0.0039,0.0039 -0.251953,0.263672 c -0.122868,0.122868 -0.201172,0.32996 -0.201172,0.488281 0,0.06774 0.01109,0.14441 0.02539,0.201172 l 0.0059,0.02539 0.0098,0.02734 c 0.02013,0.05382 0.03118,0.07821 0.02148,0.04883 l 0.01367,0.04297 0.02148,0.03906 c 0.08905,0.162899 0.211381,0.324821 0.373047,0.515625 v 0.002 l 0.002,0.002 c 0.157182,0.181363 0.326884,0.368546 0.511719,0.556641 l 0.0039,0.0039 0.0039,0.0039 c 0.18705,0.183258 0.369944,0.35622 0.5625,0.519532 h 0.002 c 0.194005,0.163877 0.361564,0.284479 0.52539,0.371093 l 0.02344,0.01367 0.02539,0.0098 c -0.01624,-0.0064 0.0078,0.0047 0.04687,0.02148 l 0.01172,0.0039 0.01172,0.0039 c 0.09534,0.03566 0.192085,0.04687 0.259766,0.04687 0.17518,0 0.378342,-0.09349 0.490234,-0.205078 l -0.002,0.0039 0.257812,-0.25586 h 0.002 c 0.06088,-0.06081 0.108692,-0.09314 0.121094,-0.09961 l 0.01367,-0.0078 0.0059,-0.002 c 0.003,9.12e-4 -0.0031,-0.0017 0.0059,0.002 0.03157,0.0129 0.08008,0.03825 0.144531,0.08203 l 1.113281,0.789062 0.002,0.002 c 0.02256,0.01561 0.01521,0.0081 0.01172,0.0039 0.0097,0.0269 0.01367,0.04562 0.01367,0.06445 0,0.04743 -0.0104,0.09785 -0.03711,0.154297 -0.03831,0.08094 -0.08431,0.150033 -0.148438,0.220703 -0.122887,0.134875 -0.240215,0.217115 -0.373047,0.271484 v 0.002 h -0.002 c -0.141425,0.05879 -0.292045,0.08984 -0.466797,0.08984 -0.266493,0 -0.568168,-0.06317 -0.90625,-0.207031 C 12.591134,14.519011 12.234888,14.316847 11.876953,14.056641 11.508666,13.788029 11.160452,13.490727 10.826172,13.160156 10.496971,12.827917 10.201453,12.480858 9.9375,12.119141 l -0.00195,-0.002 C 9.6775524,11.758701 9.4727909,11.406144 9.328125,11.066406 v -0.002 C 9.1876185,10.730603 9.125,10.431605 9.125,10.158203 c 0,-0.1706519 0.029777,-0.3266024 0.085937,-0.4667967 v -0.00195 C 9.2643239,9.5539602 9.3481748,9.4294218 9.4785156,9.3066406 l 0.00391,-0.00391 0.00391,-0.00391 C 9.6311588,9.1564813 9.7271949,9.125 9.8378906,9.125 Z"
     id="path4" />
</svg>
