<svg width="20" height="20" viewBox="0 0 20 20" fill="none" xmlns="http://www.w3.org/2000/svg">
<path fill-rule="evenodd" clip-rule="evenodd" d="M1.0415 9.99996C1.0415 5.05829 5.05817 1.04163 9.99984 1.04163C14.9415 1.04163 18.9582 5.05829 18.9582 9.99996C18.9582 14.9416 14.9415 18.9583 9.99984 18.9583C5.05817 18.9583 1.0415 14.9416 1.0415 9.99996ZM2.2915 9.99996C2.2915 14.25 5.74984 17.7083 9.99984 17.7083C14.2498 17.7083 17.7082 14.25 17.7082 9.99996C17.7082 5.74996 14.2498 2.29163 9.99984 2.29163C5.74984 2.29163 2.2915 5.74996 2.2915 9.99996Z" fill="#292D32"/>
<path d="M6.6665 10.625C6.32484 10.625 6.0415 10.3417 6.0415 10C6.0415 9.65833 6.32484 9.375 6.6665 9.375H13.3332C13.6748 9.375 13.9582 9.65833 13.9582 10C13.9582 10.3417 13.6748 10.625 13.3332 10.625H6.6665Z" fill="#292D32"/>
<path d="M9.375 13.3333V6.66663C9.375 6.32496 9.65833 6.04163 10 6.04163C10.3417 6.04163 10.625 6.32496 10.625 6.66663V13.3333C10.625 13.675 10.3417 13.9583 10 13.9583C9.65833 13.9583 9.375 13.675 9.375 13.3333Z" fill="#292D32"/>
</svg>
