<svg width="20" height="20" viewBox="0 0 20 20" fill="none" xmlns="http://www.w3.org/2000/svg">
<path d="M8.82529 15.025L7.57529 13.775C7.33363 13.5334 7.33363 13.1334 7.57529 12.8917C7.81696 12.65 8.21696 12.65 8.45863 12.8917L9.28363 13.7167L11.5503 11.625C11.8003 11.3917 12.2003 11.4084 12.4336 11.6584C12.667 11.9084 12.6503 12.3084 12.4003 12.5417L9.69196 15.0417C9.57529 15.15 9.42529 15.2084 9.26696 15.2084C9.10863 15.2084 8.95029 15.15 8.82529 15.025Z" fill="#25AD8C"/>
<path d="M3.88389 5.13328C3.64222 4.89162 3.64222 4.49162 3.88389 4.24995L6.90889 1.22495C7.15055 0.983285 7.55055 0.983285 7.79222 1.22495C8.03389 1.46662 8.03389 1.86662 7.79222 2.10828L4.76722 5.13328C4.64222 5.24995 4.48389 5.31662 4.32555 5.31662C4.16722 5.31662 4.00055 5.24995 3.88389 5.13328Z" fill="#25AD8C"/>
<path d="M15.2326 5.13328L12.2076 2.10828C11.966 1.86662 11.966 1.46662 12.2076 1.22495C12.4493 0.983285 12.8493 0.983285 13.091 1.22495L16.116 4.24995C16.3576 4.49162 16.3576 4.89162 16.116 5.13328C15.9993 5.24995 15.8326 5.31662 15.6743 5.31662C15.516 5.31662 15.3576 5.25828 15.2326 5.13328Z" fill="#25AD8C"/>
<path fill-rule="evenodd" clip-rule="evenodd" d="M16.6665 8.83339H16.4748H3.33317C2.74984 8.84173 2.08317 8.84173 1.59984 8.35839C1.2165 7.98339 1.0415 7.40006 1.0415 6.54173C1.0415 4.25006 2.7165 4.25006 3.5165 4.25006H16.4832C17.2832 4.25006 18.9582 4.25006 18.9582 6.54173C18.9582 7.40839 18.7832 7.98339 18.3998 8.35839C17.9665 8.79173 17.3832 8.83339 16.8415 8.83339C16.7832 8.83339 16.7248 8.83339 16.6665 8.83339ZM16.6748 7.58339C17.0498 7.59173 17.3998 7.59173 17.5165 7.47506C17.5748 7.41673 17.6998 7.21673 17.6998 6.54173C17.6998 5.60006 17.4665 5.50006 16.4748 5.50006H3.5165C2.52484 5.50006 2.2915 5.60006 2.2915 6.54173C2.2915 7.21673 2.42484 7.41673 2.47484 7.47506C2.5915 7.58339 2.94984 7.58339 3.3165 7.58339H3.5165H16.6748Z" fill="#25AD8C"/>
<path d="M7.38378 18.9583C4.40045 18.9583 3.73378 17.1833 3.47545 15.6416L2.30045 8.43331C2.24211 8.09164 2.47545 7.77498 2.81711 7.71665C3.15045 7.65831 3.47545 7.89165 3.53378 8.23331L4.70878 15.4333C4.95045 16.9083 5.45045 17.7083 7.38378 17.7083H12.4088C14.5504 17.7083 14.7921 16.9583 15.0671 15.5083L16.4671 8.21664C16.5338 7.87498 16.8588 7.64998 17.2004 7.72498C17.5421 7.79165 17.7588 8.11664 17.6921 8.45831L16.2921 15.75C15.9671 17.4416 15.4254 18.9583 12.4088 18.9583H7.38378Z" fill="#25AD8C"/>
</svg>
