<svg width="20" height="20" viewBox="0 0 20 20" fill="none" xmlns="http://www.w3.org/2000/svg">
<path fill-rule="evenodd" clip-rule="evenodd" d="M7.49984 18.9583C2.97484 18.9583 1.0415 17.025 1.0415 12.5V7.49996C1.0415 2.97496 2.97484 1.04163 7.49984 1.04163H12.4998C17.0248 1.04163 18.9582 2.97496 18.9582 7.49996V12.5C18.9582 17.025 17.0248 18.9583 12.4998 18.9583H7.49984ZM2.2915 7.49996V12.5C2.2915 16.3416 3.65817 17.7083 7.49984 17.7083H12.4998C16.3415 17.7083 17.7082 16.3416 17.7082 12.5V7.49996C17.7082 3.65829 16.3415 2.29163 12.4998 2.29163H7.49984C3.65817 2.29163 2.2915 3.65829 2.2915 7.49996Z" fill="#292D32"/>
<path fill-rule="evenodd" clip-rule="evenodd" d="M10.625 13.75V6.25004C10.625 4.98337 11.65 3.95837 12.9167 3.95837C14.1833 3.95837 15.2083 4.98337 15.2083 6.25004V13.75C15.2083 15.0167 14.1833 16.0417 12.9167 16.0417C11.65 16.0417 10.625 15.0167 10.625 13.75ZM11.875 6.25004V13.75C11.875 14.325 12.3417 14.7917 12.9167 14.7917C13.4917 14.7917 13.9583 14.325 13.9583 13.75V6.25004C13.9583 5.67504 13.4917 5.20837 12.9167 5.20837C12.3417 5.20837 11.875 5.67504 11.875 6.25004Z" fill="#292D32"/>
<path fill-rule="evenodd" clip-rule="evenodd" d="M4.7915 13.75V10.8333C4.7915 9.56663 5.8165 8.54163 7.08317 8.54163C8.34984 8.54163 9.37484 9.56663 9.37484 10.8333V13.75C9.37484 15.0166 8.34984 16.0416 7.08317 16.0416C5.8165 16.0416 4.7915 15.0166 4.7915 13.75ZM6.0415 10.8333V13.75C6.0415 14.325 6.50817 14.7916 7.08317 14.7916C7.65817 14.7916 8.12484 14.325 8.12484 13.75V10.8333C8.12484 10.2583 7.65817 9.79163 7.08317 9.79163C6.50817 9.79163 6.0415 10.2583 6.0415 10.8333Z" fill="#292D32"/>
</svg>
